HIERARCHY
ROOT Hips
{
  OFFSET 0 89.5177 0.535
  CHANNELS 6 Xposition Yposition Zposition Zrotation Xrotation Yrotation
  JOINT Spine
  {
    OFFSET 12.0259 -0.162855 1.69034e-005
    CHANNELS 3 Zrotation Xrotation Yrotation
    JOINT Spine1
    {
      OFFSET 15.3169 -0.0121922 0
      CHANNELS 3 Zrotation Xrotation Yrotation
      JOINT Spine2
      {
        OFFSET 15.3176 -0.0121908 0
        CHANNELS 3 Zrotation Xrotation Yrotation
        JOINT Neck
        {
          OFFSET 19.9142 1.56338 0
          CHANNELS 3 Zrotation Xrotation Yrotation
          JOINT Head
          {
            OFFSET 6.92651 0 0
            CHANNELS 3 Zrotation Xrotation Yrotation
            End Site
            {
              OFFSET 20.7666 0 0
            }
          }
          JOINT LeftShoulder
          {
            OFFSET -6.20654 0.708824 7.28219
            CHANNELS 3 Zrotation Xrotation Yrotation
            JOINT LeftArm
            {
              OFFSET 14.108 0 -1.52588e-005
              CHANNELS 3 Zrotation Xrotation Yrotation
              JOINT LeftForeArm
              {
                OFFSET 28.5802 0 0
                CHANNELS 3 Zrotation Xrotation Yrotation
                JOINT LeftHand
                {
                  OFFSET 27.092 0 0
                  CHANNELS 3 Zrotation Xrotation Yrotation
                  End Site
                  {
                    OFFSET 9.55928 -0.186424 0.145352
                  }
                }
              }
            }
          }
          JOINT RightShoulder
          {
            OFFSET -6.20654 0.708866 -7.28218
            CHANNELS 3 Zrotation Xrotation Yrotation
            JOINT RightArm
            {
              OFFSET 14.108 0 1.52588e-005
              CHANNELS 3 Zrotation Xrotation Yrotation
              JOINT RightForeArm
              {
                OFFSET 28.5802 0 0
                CHANNELS 3 Zrotation Xrotation Yrotation
                JOINT RightHand
                {
                  OFFSET 27.092 0 0
                  CHANNELS 3 Zrotation Xrotation Yrotation
                  End Site
                  {
                    OFFSET 9.55929 -0.186417 -0.145354
                  }
                }
              }
            }
          }
        }
      }
    }
  }
  JOINT LeftUpLeg
  {
    OFFSET 0.005 -0.535 8.837
    CHANNELS 3 Zrotation Xrotation Yrotation
    JOINT LeftLeg
    {
      OFFSET 39.9035 0 0
      CHANNELS 3 Zrotation Xrotation Yrotation
      JOINT LeftFoot
      {
        OFFSET 39.6689 0 0
        CHANNELS 3 Zrotation Xrotation Yrotation
        JOINT LeftToe
        {
          OFFSET 10.1624 13.6296 0
          CHANNELS 3 Zrotation Xrotation Yrotation
          End Site
          {
            OFFSET 8.38147 0 0
          }
        }
      }
    }
  }
  JOINT RightUpLeg
  {
    OFFSET 0.005 -0.535 -8.837
    CHANNELS 3 Zrotation Xrotation Yrotation
    JOINT RightLeg
    {
      OFFSET 39.9035 0 0
      CHANNELS 3 Zrotation Xrotation Yrotation
      JOINT RightFoot
      {
        OFFSET 39.6689 0 0
        CHANNELS 3 Zrotation Xrotation Yrotation
        JOINT RightToe
        {
          OFFSET 10.1624 13.6296 0
          CHANNELS 3 Zrotation Xrotation Yrotation
          End Site
          {
            OFFSET 8.38147 0 0
          }
        }
      }
    }
  }
}
MOTION
Frames:	19
Frame Time:	0.0333333
418.453 86.7884 152.587 -96.7728 -28.3518 179.769 1.15614 2.16138 -1.10706 2.35638 4.30002 -2.25981 2.35638 4.30002 -2.25982 -8.30828e-012 -9.0191e-006 -5.27751e-005 -24.4217 23.9257 10.4065 -177.42 -9.26607 -74.368 111.707 -78.4438 113.837 -4.2225 -3.18055e-015 -0 -44.2922 -37.9475 -51.1781 179.628 -1.39814 75.1121 8.90478 22.4709 -49.7021 -46.7578 6.36111e-015 3.18055e-015 -41.9585 40.8439 46.3167 -28.4862 4.6084 172.991 -22.6306 -3.18055e-015 2.38542e-015 5.57368 9.20551 -0.66996 90 1.19271e-015 -3.18055e-015 5.69636 -17.0508 -176.691 -30.3172 0 -7.95139e-016 14.473 -2.73219 -3.77832 90 0 -1.59028e-015 
422.61 87.0794 152.14 -96.0165 -30.5475 -179.733 1.27681 2.01895 -1.45208 2.60683 4.00482 -2.9514 2.60683 4.00482 -2.95141 -8.30589e-012 -9.0191e-006 -5.27751e-005 -24.9337 22.4523 10.8992 -177.685 -8.75222 -75.1185 115.047 -79.9258 115.851 -3.58931 3.18055e-015 -0 -43.3065 -39.8296 -50.5142 179.595 -1.53416 75.1982 10.1687 20.7835 -51.3284 -51.2925 -9.54166e-015 7.95139e-016 -43.4974 41.9124 48.2076 -26.2499 0.529533 172.79 -23.8178 3.18055e-015 7.95139e-016 6.52488 8.08078 -1.84343 90 7.95139e-016 -0 1.01487 -20.3007 -179.114 -42.2905 -1.59028e-015 1.59028e-015 6.092 -8.95041 -5.09042 90 -1.59028e-015 -0 
426.561 87.0921 151.461 -95.229 -31.995 179.928 1.23232 1.99114 -1.3972 2.51513 3.95162 -2.83934 2.51513 3.95162 -2.83935 -8.30987e-012 -9.0191e-006 -5.27751e-005 -22.5374 22.3045 9.92689 -177.626 -9.08105 -75.2838 108.398 -80.8455 109.407 -3.51586 3.18055e-015 -3.18055e-015 -42.4896 -40.6557 -49.5631 179.651 -1.36224 75.6107 9.58356 18.4992 -52.4045 -54.2432 -9.54166e-015 3.18055e-015 -43.4655 42.8464 48.377 -24.5513 0.231562 173.797 -27.1836 -1.27222e-014 -5.56597e-015 11.3405 9.23265 -0.917488 90 1.19271e-015 -3.18055e-015 -6.78504 -21.573 175.785 -54.3919 1.59028e-015 -0 -6.74005 -15.2129 7.0921 90 3.97569e-016 6.36111e-015 
430.349 87.4314 150.907 -95.0308 -34.16 179.827 1.13372 1.8298 -1.34272 2.31179 3.63261 -2.72331 2.31179 3.63261 -2.72332 -8.30669e-012 -9.0191e-006 -5.27751e-005 -19.5995 22.8734 8.3838 -177.286 -9.97214 -74.6917 90.8008 -80.7046 93.7243 -5.21409 6.36111e-015 -3.18055e-015 -40.3749 -43.6129 -47.9682 179.902 -0.362061 74.8577 6.92951 16.7093 -52.0566 -56.0714 -9.54166e-015 1.59028e-015 -41.4545 43.8639 46.5457 -22.3145 -0.117775 174.832 -28.0151 3.18055e-015 3.18055e-015 14.5478 11.3931 -2.83978 90 -7.95139e-016 -3.18055e-015 -12.2732 -22.6142 171.397 -58.3663 -2.38542e-015 -0 -14.8076 -15.4397 14.9756 90 -7.95139e-016 -3.18055e-015 
434.166 88.112 150.309 -94.6712 -36.9751 179.403 1.10804 1.67692 -1.16529 2.25141 3.33109 -2.36417 2.25141 3.33109 -2.36418 -8.30748e-012 -9.0191e-006 -5.27751e-005 -18.1854 22.6459 7.0468 -177.005 -10.3533 -73.7703 64.0824 -77.9612 69.7633 -9.3067 0 -0 -38.4974 -45.3561 -45.7755 -179.954 0.157378 73.6923 5.74539 14.6248 -51.9165 -57.7017 0 -9.54166e-015 -39.3096 44.5125 44.1362 -18.7822 -1.89234 176.259 -26.1616 3.18055e-015 2.38542e-015 15.992 13.0825 -5.41825 90 7.95139e-016 -0 -16.3983 -24.1165 168.192 -60.4013 7.95139e-016 -0 -13.6652 -13.6994 14.4536 90 7.95139e-016 -1.59028e-015 
437.879 88.7586 149.751 -94.1909 -39.4114 178.637 1.12129 1.61734 -0.840774 2.26755 3.2182 -1.71392 2.26755 3.2182 -1.71393 -8.31146e-012 -9.0191e-006 -5.27751e-005 -17.353 22.1018 5.5711 -176.83 -10.4842 -73.0692 38.3689 -67.7686 47.0693 -17.4209 0 -0 -41.8437 -47.3476 -49.7649 -179.901 0.331287 73.3568 5.49283 12.4046 -53.078 -58.5209 -3.18055e-015 6.36111e-015 -38.2475 44.1401 42.2602 -14.4871 -4.97112 178.051 -22.7324 3.18055e-015 -0 15.9646 12.9548 -6.74422 90 -1.59028e-015 -3.18055e-015 -19.6153 -24.672 166.262 -60.762 1.59028e-015 1.59028e-015 -8.82361 -11.9298 10.0143 90 -4.37326e-015 1.59028e-015 
441.416 89.2401 149.353 -94.132 -42.0823 177.851 1.09285 1.47773 -0.546871 2.20085 2.94517 -1.12225 2.20085 2.94517 -1.12226 -8.30669e-012 -9.0191e-006 -5.27751e-005 -17.284 21.4036 4.29434 -176.693 -10.5828 -72.5345 31.4385 -57.7779 42.8925 -25.8711 3.18055e-015 -3.18055e-015 -44.8128 -47.7319 -53.1728 -179.809 0.622396 72.9054 4.80456 10.7595 -54.1044 -58.8503 3.18055e-015 -3.18055e-015 -36.7968 44.1274 40.5019 -10.5252 -7.83617 -179.922 -18.9484 9.54166e-015 3.18055e-015 15.5451 13.0263 -8.61313 90 -7.95139e-016 6.36111e-015 -21.6382 -24.406 165.254 -57.5073 2.38542e-015 3.18056e-015 -2.1965 -9.48387 4.71085 90 -7.95139e-015 -3.18055e-015 
444.794 89.4165 149.103 -94.5264 -44.9722 176.987 1.05133 1.29069 -0.287984 2.10993 2.57634 -0.599685 2.10993 2.57634 -0.599694 -8.30828e-012 -9.0191e-006 -5.27751e-005 -17.893 20.6306 2.9836 -176.62 -10.4953 -72.0372 27.5183 -47.8868 41.5672 -34.5356 0 3.18055e-015 -47.9818 -48.9172 -57.099 -179.667 1.04006 72.2251 3.52207 9.75062 -54.3943 -59.1503 -3.18055e-015 3.18055e-015 -34.8738 44.3438 38.2625 -7.63589 -9.67898 -177.754 -16.3024 3.18055e-015 3.97569e-016 15.8167 13.9344 -10.8928 90 2.38542e-015 -6.36111e-015 -23.3408 -22.6199 163.957 -51.9237 0 -3.18056e-015 1.61084 -6.44155 5.12407 90 -4.77083e-015 -3.18055e-015 
448.026 89.2316 149.033 -95.3811 -47.9906 176.165 1.03104 1.11198 -0.109167 2.06478 2.22229 -0.238244 2.06478 2.22229 -0.238253 -8.30987e-012 -9.0191e-006 -5.27751e-005 -18.9298 19.7119 1.39333 -176.693 -10.1199 -71.797 25.7431 -39.2463 42.5081 -42.9058 1.11319e-014 -1.59028e-015 -50.2359 -49.3035 -59.8609 -179.499 1.51576 71.6994 2.15892 9.27548 -54.4305 -59.859 9.54166e-015 3.18055e-015 -34.1364 44.1515 37.1 -6.07284 -11.3127 -175.908 -15.1873 0 1.19271e-015 16.8564 15.0446 -12.9241 90 -1.59028e-015 6.36111e-015 -24.4087 -19.5363 162.702 -44.9047 3.18056e-015 3.18056e-015 4.15121 -3.03383 6.11761 90 1.59028e-015 6.36111e-015 
451.232 88.7636 149.17 -96.3697 -51.1417 175.737 1.09505 0.983766 -0.0466371 2.19138 1.96693 -0.111941 2.19138 1.96693 -0.11195 -8.30669e-012 -9.0191e-006 -5.27751e-005 -20.4388 18.5922 -0.0147016 -176.865 -9.66574 -71.9347 23.9708 -31.2004 44.5192 -50.6952 0 -0 -52.2237 -49.5953 -62.7235 -179.379 1.84447 71.3779 1.2416 9.05223 -54.3127 -61.2223 -3.18055e-015 6.36111e-015 -34.5316 43.9877 37.322 -4.96054 -13.3361 -174.451 -14.4034 3.18055e-015 -3.57812e-015 17.6392 15.8013 -14.7278 90 3.18055e-015 -3.18055e-015 -23.4308 -15.3698 162.123 -35.1253 6.36111e-015 -0 5.58128 -0.417257 2.51616 90 1.59028e-015 -0 
454.458 88.0884 149.532 -98.5092 -54.2431 174.831 1.0798 0.929001 -0.107346 2.16175 1.85629 -0.232074 2.16175 1.85629 -0.232084 -8.30589e-012 -9.0191e-006 -5.27751e-005 -22.1687 17.2992 -1.18381 -177.176 -8.90572 -72.3257 21.8047 -23.4061 46.79 -57.5844 -7.55382e-015 1.59028e-015 -53.614 -49.7878 -64.8942 -179.34 1.95131 71.3091 0.839761 9.14333 -54.2457 -62.4025 3.18055e-015 -3.18055e-015 -35.0682 44.0964 37.914 -4.46943 -15.5486 -173.239 -13.1089 6.36111e-015 1.98785e-015 17.6352 16.1051 -16.4514 90 0 -0 -21.4636 -9.47201 161.094 -23.5286 3.18056e-015 3.18056e-015 3.16133 1.09141 -0.0428963 90 -1.59028e-015 -0 
457.851 87.3218 150.087 -101.477 -57.0751 173.091 0.993368 0.937192 -0.167687 1.98987 1.8718 -0.351515 1.98987 1.8718 -0.351524 -8.30907e-012 -9.0191e-006 -5.27751e-005 -23.5486 16.1659 -2.1918 -177.335 -8.49924 -72.5163 18.6984 -16.5285 49.3008 -62.9738 -1.19271e-015 5.56597e-015 -53.3681 -50.0685 -65.1366 -179.315 2.04022 71.4286 0.298698 9.61993 -54.2567 -62.7149 0 -0 -35.607 44.1532 38.4832 -3.16531 -17.4992 -171.454 -9.71148 -3.18055e-015 -2.68359e-015 16.4406 15.8423 -17.4407 90 0 -6.36111e-015 -18.1539 -3.91575 159.735 -10.3698 6.36111e-015 1.59028e-015 -2.01849 0.173839 -0.140403 90 -1.59028e-015 3.18055e-015 
461.665 86.6257 150.845 -103.905 -59.7466 170.697 0.992064 0.975837 -0.0148788 1.98481 1.95174 -0.0465084 1.98481 1.95174 -0.0465177 -8.3043e-012 -9.0191e-006 -5.27751e-005 -24.1873 15.3699 -3.50254 -177.333 -8.32556 -72.1641 15.4759 -10.7888 51.8672 -67.2033 2.38542e-015 1.98785e-016 -51.2569 -49.7971 -62.0901 -179.278 2.17114 71.613 -0.782966 10.4854 -54.2034 -62.0216 -3.18055e-015 -9.54166e-015 -36.0055 44.1929 39.0739 -0.427805 -18.7395 -168.249 -5.57165 3.18055e-015 2.18663e-015 15.2095 15.1781 -15.52 90 1.19271e-015 -6.36111e-015 -18.4821 -1.7294 159.03 -6.60584 6.36111e-015 -5.96354e-015 -1.76107 -4.06415 5.72126 90 3.97569e-016 -0 
466.154 86.1309 152.057 -105.622 -62.3343 167.313 1.13692 0.96123 0.422706 2.26719 1.93111 0.826582 2.26719 1.93111 0.826573 -8.30589e-012 -9.0191e-006 -5.27751e-005 -25.2007 15.505 -4.42805 -177.277 -8.12715 -71.4055 14.1603 -6.75526 55.1882 -70.8413 6.55989e-015 -1.59028e-015 -47.5953 -48.2276 -56.4393 -179.31 2.08228 71.6737 -2.45503 11.6894 -53.9487 -60.3465 1.59028e-015 -6.36111e-015 -35.9239 43.8005 38.9475 0.647789 -19.4964 -163.544 -6.23989 -9.54166e-015 -2.38542e-015 14.6809 13.9472 -14.5112 90 5.96354e-016 -3.18055e-015 -18.816 -2.79712 161.57 -6.09627 3.18056e-015 1.19271e-015 -3.49591 -8.33965 9.51513 90 3.97569e-016 3.18055e-015 
471.019 85.9323 153.547 -109.05 -65.79 161.545 1.23688 0.784717 0.951824 2.46091 1.59017 1.88691 2.46091 1.59017 1.8869 -8.31066e-012 -9.0191e-006 -5.27751e-005 -26.9083 15.3717 -4.74204 -177.402 -7.64414 -71.1624 13.1989 -3.0866 58.9955 -73.1177 2.38542e-015 -3.97569e-016 -47.5631 -47.134 -55.8717 -179.376 1.87786 71.6246 -3.7264 12.8109 -53.8602 -58.2833 1.59028e-015 -0 -35.6118 43.232 38.525 -2.25939 -20.5482 -158.869 -12.9205 -3.18055e-015 5.71506e-016 14.8014 10.847 -15.7601 90 7.95139e-016 -3.18055e-015 -23.8107 -8.79296 164.725 -16.1081 -6.36111e-015 -1.59028e-015 1.34575 -10.347 12.3314 90 3.47873e-016 -0 
475.702 86.2484 155.085 -114.929 -69.9351 154.052 1.33061 0.568973 1.34431 2.64771 1.16933 2.6754 2.64771 1.16933 2.67539 -8.30748e-012 -9.0191e-006 -5.27751e-005 -27.7155 13.7027 -5.17776 -177.54 -7.02384 -70.6386 11.0419 0.0525451 62.4813 -73.6167 -1.19271e-015 7.95139e-016 -47.8024 -47.4052 -57.0816 -179.328 1.96336 71.0962 -4.18992 13.7034 -53.1603 -55.6292 1.59028e-015 -1.59028e-015 -35.8108 42.7728 38.6051 -7.78308 -18.3771 -156.83 -19.1368 3.18055e-015 -1.98785e-015 12.0077 4.70718 -11.1933 90 3.52843e-015 -0 -26.7125 -15.6396 167.154 -22.5147 3.18056e-015 -2.38542e-015 4.86811 -10.9829 10.5777 90 4.96962e-017 -0 
480.247 86.8903 155.985 -121.192 -74.6818 147.498 1.4853 0.391742 1.34036 2.96114 0.818462 2.67036 2.96114 0.818462 2.67035 -8.30748e-012 -9.0191e-006 -5.27751e-005 -27.9499 9.87306 -4.35392 -177.963 -6.03191 -71.2984 7.41513 3.71014 65.7025 -73.0581 -1.19271e-015 -1.98785e-015 -49.4566 -47.7171 -60.2068 -179.34 1.93873 71.1936 -2.11022 13.7713 -53.8567 -52.4384 -1.59028e-015 3.18055e-015 -35.8787 42.5732 38.6074 -13.3907 -10.1367 -157.825 -20.8275 3.18055e-015 5.1684e-015 7.11663 -1.5651 -2.78402 90 8.19987e-016 -0 -25.174 -20.3147 168.884 -23.9167 -6.36111e-015 7.95139e-016 7.38675 -9.49149 8.3635 90 -1.2424e-016 -9.54166e-015 
484.138 87.6871 156.581 -135.675 -79.4426 133.519 1.56828 0.16105 1.25239 3.13268 0.35675 2.50007 3.13268 0.356749 2.50006 -8.30748e-012 -9.0191e-006 -5.27751e-005 -26.7713 5.8425 -3.99171 -178.17 -5.33282 -71.0247 2.82828 6.29934 67.4016 -72.421 1.98785e-015 3.97569e-016 -47.5983 -46.8749 -57.6906 -179.302 2.04039 71.114 1.03428 13.3511 -54.0407 -49.2925 3.18055e-015 -0 -35.5055 42.6805 38.4727 -17.249 -1.18066 -160.096 -20.4691 -7.95139e-016 8.94531e-015 3.85083 -2.64348 0.197415 90 8.22472e-015 -0 -22.6882 -23.472 170.499 -22.9978 1.27222e-014 3.97569e-015 7.98122 -6.50696 4.31738 90 -1.98785e-016 -0 
487.678 88.6796 157.093 -156.689 -82.5263 113.231 1.62688 0.112078 1.05723 3.25142 0.254582 2.11101 3.25142 0.254582 2.111 -8.30907e-012 -9.0191e-006 -5.27751e-005 -25.4926 2.05716 -3.53608 -178.197 -5.15193 -70.6805 -0.662311 8.12222 68.3398 -72.6377 3.97569e-016 3.97569e-016 -42.3029 -45.1406 -49.4916 -179.323 1.95778 70.9335 4.8182 12.7223 -54.3848 -45.2158 0 -4.77083e-015 -35.2738 42.6939 38.3852 -18.5022 8.18591 -162.654 -21.3112 0 2.78299e-015 3.21467 2.12818 -3.96884 90 3.97569e-016 1.59028e-015 -20.3603 -24.1969 172.157 -22.2048 3.18056e-015 1.59028e-015 7.44532 -2.7419 2.29095 90 -1.98785e-016 -3.18055e-015 
